<svg xmlns="http://www.w3.org/2000/svg" version="1.1" xmlns:xlink="http://www.w3.org/1999/xlink" xmlns:svgjs="http://svgjs.dev/svgjs" width="2000" height="247" viewBox="0 0 2000 247"><g transform="matrix(1,0,0,1,-1.2121212121212466,0.03100837721119376)"><svg viewBox="0 0 396 49" data-background-color="#ffffff" preserveAspectRatio="xMidYMid meet" height="247" width="2000" xmlns="http://www.w3.org/2000/svg" xmlns:xlink="http://www.w3.org/1999/xlink"><g id="tight-bounds" transform="matrix(1,0,0,1,0.2400000000000091,-0.006151459446755325)"><svg viewBox="0 0 395.52 49.01230291889352" height="49.01230291889352" width="395.52"><g><svg viewBox="0 0 459.97471958596213 56.99944450692829" height="49.01230291889352" width="395.52"><g transform="matrix(1,0,0,1,64.45471958596214,7.877636686558109)"><svg viewBox="0 0 395.52 41.244171133812074" height="41.244171133812074" width="395.52"><g id="textblocktransform"><svg viewBox="0 0 395.52 41.244171133812074" height="41.244171133812074" width="395.52" id="textblock"><g><svg viewBox="0 0 395.52 41.244171133812074" height="41.244171133812074" width="395.52"><g transform="matrix(1,0,0,1,0,0)"><svg width="395.52" viewBox="1.3 -38.05 494.3 51.55" height="41.244171133812074" data-palette-color="#306f89"><path d="M7.5-34.85L27.15-34.85 26.5-31.3 11.4-31.3 9.3-19.35 21.6-19.35 20.95-15.8 8.65-15.8 5.85 0 1.3 0 7.5-34.85ZM35-22.2Q36.65-24.9 39.15-26.4 41.65-27.9 44.85-27.9L44.85-27.9 44-23.2 42.8-23.2Q39.25-23.2 36.87-21.3 34.5-19.4 33.7-14.9L33.7-14.9 31.05 0 26.5 0 31.35-27.4 35.9-27.4 35-22.2ZM53.1-31.85Q52-31.85 51.27-32.58 50.55-33.3 50.55-34.4L50.55-34.4Q50.55-35.9 51.65-36.98 52.75-38.05 54.2-38.05L54.2-38.05Q55.35-38.05 56.05-37.35 56.75-36.65 56.75-35.5L56.75-35.5Q56.75-34 55.65-32.93 54.55-31.85 53.1-31.85L53.1-31.85ZM50-27.4L54.55-27.4 49.7 0 45.15 0 50-27.4ZM65.94-22.3Q67.79-24.75 70.74-26.3 73.69-27.85 77.14-27.85L77.14-27.85Q82.04-27.85 85.02-24.9 87.99-21.95 87.99-16.9L87.99-16.9Q87.99-15.45 87.69-13.8L87.69-13.8Q86.94-9.65 84.67-6.4 82.39-3.15 79.12-1.35 75.84 0.45 72.19 0.45L72.19 0.45Q68.64 0.45 66.24-1.1 63.84-2.65 62.89-5.05L62.89-5.05 61.99 0 57.44 0 63.99-37 68.54-37 65.94-22.3ZM83.04-13.8Q83.24-14.85 83.24-16.1L83.24-16.1Q83.24-19.75 81.09-21.83 78.94-23.9 75.54-23.9L75.54-23.9Q73.04-23.9 70.69-22.68 68.34-21.45 66.67-19.13 64.99-16.8 64.44-13.75L64.44-13.75Q64.24-12.7 64.24-11.45L64.24-11.45Q64.24-7.8 66.42-5.68 68.59-3.55 71.94-3.55L71.94-3.55Q74.49-3.55 76.82-4.78 79.14-6 80.82-8.33 82.49-10.65 83.04-13.8L83.04-13.8ZM107.99-27.85Q111.44-27.85 113.97-26.53 116.49-25.2 117.82-22.83 119.14-20.45 119.14-17.4L119.14-17.4Q119.14-16.35 118.89-14.85L118.89-14.85Q118.69-13.55 118.24-12.15L118.24-12.15 96.34-12.15Q96.24-11.15 96.24-10.7L96.24-10.7Q96.24-7.25 98.32-5.33 100.39-3.4 103.74-3.4L103.74-3.4Q106.69-3.4 108.92-4.78 111.14-6.15 112.29-8.45L112.29-8.45 117.19-8.45Q115.39-4.5 111.67-2.02 107.94 0.45 103.04 0.45L103.04 0.45Q97.89 0.45 94.77-2.53 91.64-5.5 91.64-10.65L91.64-10.65Q91.64-12.1 91.94-13.75L91.94-13.75Q92.69-18 94.99-21.2 97.29-24.4 100.67-26.13 104.04-27.85 107.99-27.85L107.99-27.85ZM114.29-15.45Q114.44-16.45 114.44-17.3L114.44-17.3Q114.44-20.5 112.42-22.25 110.39-24 107.14-24L107.14-24Q103.64-24 100.79-21.73 97.94-19.45 96.94-15.45L96.94-15.45 114.29-15.45ZM130.74-22.2Q132.39-24.9 134.89-26.4 137.39-27.9 140.59-27.9L140.59-27.9 139.74-23.2 138.54-23.2Q134.99-23.2 132.61-21.3 130.24-19.4 129.44-14.9L129.44-14.9 126.79 0 122.24 0 127.09-27.4 131.64-27.4 130.74-22.2ZM157.14-27.85Q160.69-27.85 163.09-26.3 165.49-24.75 166.34-22.4L166.34-22.4 167.24-27.4 171.84-27.4 166.89 0.6Q166.24 4.35 164.11 7.28 161.99 10.2 158.74 11.85 155.49 13.5 151.54 13.5L151.54 13.5Q146.14 13.5 142.99 10.93 139.84 8.35 139.94 4L139.94 4 144.49 4Q144.79 6.5 146.86 8.03 148.94 9.55 152.24 9.55L152.24 9.55Q155.99 9.55 158.79 7.2 161.59 4.85 162.34 0.6L162.34 0.6 163.34-5.15Q161.54-2.75 158.61-1.15 155.69 0.45 152.14 0.45L152.14 0.45Q148.94 0.45 146.49-0.93 144.04-2.3 142.66-4.85 141.29-7.4 141.29-10.75L141.29-10.75Q141.29-12.25 141.59-13.8L141.59-13.8Q142.34-18 144.61-21.18 146.89-24.35 150.16-26.1 153.44-27.85 157.14-27.85L157.14-27.85ZM164.84-13.75Q165.04-14.8 165.04-16L165.04-16Q165.04-19.65 162.86-21.78 160.69-23.9 157.34-23.9L157.34-23.9Q154.79-23.9 152.46-22.7 150.14-21.5 148.49-19.2 146.84-16.9 146.29-13.8L146.29-13.8Q146.09-12.75 146.09-11.5L146.09-11.5Q146.09-7.8 148.24-5.68 150.39-3.55 153.74-3.55L153.74-3.55Q156.29-3.55 158.61-4.78 160.94-6 162.61-8.33 164.29-10.65 164.84-13.75L164.84-13.75ZM184.33 0.45Q180.03 0.45 177.28-1.6 174.53-3.65 174.53-7.1L174.53-7.1Q174.53-7.75 174.58-8.05L174.58-8.05 179.03-8.05Q178.83-5.9 180.31-4.55 181.78-3.2 184.58-3.2L184.58-3.2Q187.38-3.2 189.11-4.28 190.83-5.35 190.83-7.3L190.83-7.3Q190.83-8.95 189.43-9.9 188.03-10.85 185.13-11.95L185.13-11.95Q182.58-12.9 180.93-13.75 179.28-14.6 178.13-16.13 176.98-17.65 176.98-20L176.98-20Q176.98-22.3 178.31-24.1 179.63-25.9 182.01-26.88 184.38-27.85 187.43-27.85L187.43-27.85Q191.63-27.85 194.33-25.75 197.03-23.65 197.03-20.25L197.03-20.25Q197.03-19.6 196.98-19.25L196.98-19.25 192.63-19.25 192.68-19.85Q192.68-21.85 191.16-23.03 189.63-24.2 187.13-24.2L187.13-24.2Q184.68-24.2 183.11-23.1 181.53-22 181.53-20.15L181.53-20.15Q181.53-18.4 182.98-17.4 184.43-16.4 187.48-15.2L187.48-15.2Q190.03-14.2 191.58-13.38 193.13-12.55 194.23-11.1 195.33-9.65 195.33-7.45L195.33-7.45Q195.33-5.05 193.91-3.25 192.48-1.45 189.98-0.5 187.48 0.45 184.33 0.45L184.33 0.45ZM221.88-34.85L241.53-34.85 240.88-31.3 225.78-31.3 223.68-19.35 235.98-19.35 235.33-15.8 223.03-15.8 220.23 0 215.68 0 221.88-34.85ZM241.58-13.8Q242.33-18 244.6-21.18 246.88-24.35 250.15-26.1 253.43-27.85 257.13-27.85L257.13-27.85Q260.73-27.85 263.08-26.3 265.43-24.75 266.33-22.4L266.33-22.4 267.23-27.4 271.83-27.4 266.98 0 262.38 0 263.33-5.1Q261.53-2.7 258.58-1.13 255.63 0.45 252.08 0.45L252.08 0.45Q248.88 0.45 246.43-0.93 243.98-2.3 242.63-4.85 241.28-7.4 241.28-10.75L241.28-10.75Q241.28-12.25 241.58-13.8L241.58-13.8ZM264.83-13.75Q265.03-14.8 265.03-16L265.03-16Q265.03-19.65 262.85-21.78 260.68-23.9 257.33-23.9L257.33-23.9Q254.78-23.9 252.45-22.7 250.13-21.5 248.48-19.2 246.83-16.9 246.28-13.8L246.28-13.8Q246.08-12.75 246.08-11.5L246.08-11.5Q246.08-7.8 248.23-5.68 250.38-3.55 253.73-3.55L253.73-3.55Q256.28-3.55 258.6-4.78 260.93-6 262.6-8.33 264.28-10.65 264.83-13.75L264.83-13.75ZM284.32 0.45Q280.02 0.45 277.27-1.6 274.52-3.65 274.52-7.1L274.52-7.1Q274.52-7.75 274.57-8.05L274.57-8.05 279.02-8.05Q278.82-5.9 280.3-4.55 281.77-3.2 284.57-3.2L284.57-3.2Q287.37-3.2 289.1-4.28 290.82-5.35 290.82-7.3L290.82-7.3Q290.82-8.95 289.42-9.9 288.02-10.85 285.12-11.95L285.12-11.95Q282.57-12.9 280.92-13.75 279.27-14.6 278.12-16.13 276.97-17.65 276.97-20L276.97-20Q276.97-22.3 278.3-24.1 279.62-25.9 282-26.88 284.37-27.85 287.42-27.85L287.42-27.85Q291.62-27.85 294.32-25.75 297.02-23.65 297.02-20.25L297.02-20.25Q297.02-19.6 296.97-19.25L296.97-19.25 292.62-19.25 292.67-19.85Q292.67-21.85 291.15-23.03 289.62-24.2 287.12-24.2L287.12-24.2Q284.67-24.2 283.1-23.1 281.52-22 281.52-20.15L281.52-20.15Q281.52-18.4 282.97-17.4 284.42-16.4 287.47-15.2L287.47-15.2Q290.02-14.2 291.57-13.38 293.12-12.55 294.22-11.1 295.32-9.65 295.32-7.45L295.32-7.45Q295.32-5.05 293.9-3.25 292.47-1.45 289.97-0.5 287.47 0.45 284.32 0.45L284.32 0.45ZM310.52-23.65L307.67-7.5Q307.52-6.75 307.52-6.2L307.52-6.2Q307.52-4.95 308.3-4.4 309.07-3.85 310.82-3.85L310.82-3.85 314.17-3.85 313.47 0 309.37 0Q306.12 0 304.5-1.25 302.87-2.5 302.87-5.35L302.87-5.35Q302.87-6.45 303.07-7.5L303.07-7.5 305.92-23.65 302.42-23.65 303.07-27.4 306.62-27.4 307.82-34.3 312.42-34.3 311.22-27.4 318.32-27.4 317.67-23.65 310.52-23.65ZM326.92-31.85Q325.82-31.85 325.09-32.58 324.37-33.3 324.37-34.4L324.37-34.4Q324.37-35.9 325.47-36.98 326.57-38.05 328.02-38.05L328.02-38.05Q329.17-38.05 329.87-37.35 330.57-36.65 330.57-35.5L330.57-35.5Q330.57-34 329.47-32.93 328.37-31.85 326.92-31.85L326.92-31.85ZM323.82-27.4L328.37-27.4 323.52 0 318.97 0 323.82-27.4ZM347.52-27.85Q351.07-27.85 353.47-26.3 355.87-24.75 356.72-22.4L356.72-22.4 357.62-27.4 362.22-27.4 357.27 0.6Q356.62 4.35 354.49 7.28 352.37 10.2 349.12 11.85 345.87 13.5 341.92 13.5L341.92 13.5Q336.52 13.5 333.37 10.93 330.22 8.35 330.32 4L330.32 4 334.87 4Q335.17 6.5 337.24 8.03 339.32 9.55 342.62 9.55L342.62 9.55Q346.37 9.55 349.17 7.2 351.97 4.85 352.72 0.6L352.72 0.6 353.72-5.15Q351.92-2.75 348.99-1.15 346.07 0.45 342.52 0.45L342.52 0.45Q339.32 0.45 336.87-0.93 334.42-2.3 333.04-4.85 331.67-7.4 331.67-10.75L331.67-10.75Q331.67-12.25 331.97-13.8L331.97-13.8Q332.72-18 334.99-21.18 337.27-24.35 340.54-26.1 343.82-27.85 347.52-27.85L347.52-27.85ZM355.22-13.75Q355.42-14.8 355.42-16L355.42-16Q355.42-19.65 353.24-21.78 351.07-23.9 347.72-23.9L347.72-23.9Q345.17-23.9 342.84-22.7 340.52-21.5 338.87-19.2 337.22-16.9 336.67-13.8L336.67-13.8Q336.47-12.75 336.47-11.5L336.47-11.5Q336.47-7.8 338.62-5.68 340.77-3.55 344.12-3.55L344.12-3.55Q346.67-3.55 348.99-4.78 351.32-6 352.99-8.33 354.67-10.65 355.22-13.75L355.22-13.75ZM383.61-27.9Q387.71-27.9 390.21-25.63 392.71-23.35 392.71-19.05L392.71-19.05Q392.71-17.45 392.46-16.15L392.46-16.15 389.61 0 385.11 0 387.86-15.5Q388.06-16.55 388.06-17.7L388.06-17.7Q388.06-20.75 386.39-22.35 384.71-23.95 381.71-23.95L381.71-23.95Q378.11-23.95 375.59-21.7 373.06-19.45 372.31-15.15L372.31-15.15 372.31-15.25 369.61 0 365.06 0 371.61-37 376.16-37 373.76-23.45Q375.46-25.55 378.09-26.73 380.71-27.9 383.61-27.9L383.61-27.9ZM413.81-27.85Q417.26-27.85 419.79-26.53 422.31-25.2 423.64-22.83 424.96-20.45 424.96-17.4L424.96-17.4Q424.96-16.35 424.71-14.85L424.71-14.85Q424.51-13.55 424.06-12.15L424.06-12.15 402.16-12.15Q402.06-11.15 402.06-10.7L402.06-10.7Q402.06-7.25 404.14-5.33 406.21-3.4 409.56-3.4L409.56-3.4Q412.51-3.4 414.74-4.78 416.96-6.15 418.11-8.45L418.11-8.45 423.01-8.45Q421.21-4.5 417.49-2.02 413.76 0.45 408.86 0.45L408.86 0.45Q403.71 0.45 400.59-2.53 397.46-5.5 397.46-10.65L397.46-10.65Q397.46-12.1 397.76-13.75L397.76-13.75Q398.51-18 400.81-21.2 403.11-24.4 406.49-26.13 409.86-27.85 413.81-27.85L413.81-27.85ZM420.11-15.45Q420.26-16.45 420.26-17.3L420.26-17.3Q420.26-20.5 418.24-22.25 416.21-24 412.96-24L412.96-24Q409.46-24 406.61-21.73 403.76-19.45 402.76-15.45L402.76-15.45 420.11-15.45ZM437.81-23.65L434.96-7.5Q434.81-6.75 434.81-6.2L434.81-6.2Q434.81-4.95 435.58-4.4 436.36-3.85 438.11-3.85L438.11-3.85 441.46-3.85 440.76 0 436.66 0Q433.41 0 431.78-1.25 430.16-2.5 430.16-5.35L430.16-5.35Q430.16-6.45 430.36-7.5L430.36-7.5 433.21-23.65 429.71-23.65 430.36-27.4 433.91-27.4 435.11-34.3 439.71-34.3 438.51-27.4 445.61-27.4 444.96-23.65 437.81-23.65ZM463.01-27.85Q466.46-27.85 468.98-26.53 471.51-25.2 472.83-22.83 474.16-20.45 474.16-17.4L474.16-17.4Q474.16-16.35 473.91-14.85L473.91-14.85Q473.71-13.55 473.26-12.15L473.26-12.15 451.36-12.15Q451.26-11.15 451.26-10.7L451.26-10.7Q451.26-7.25 453.33-5.33 455.41-3.4 458.76-3.4L458.76-3.4Q461.71-3.4 463.93-4.78 466.16-6.15 467.31-8.45L467.31-8.45 472.21-8.45Q470.41-4.5 466.68-2.02 462.96 0.45 458.06 0.45L458.06 0.45Q452.91 0.45 449.78-2.53 446.66-5.5 446.66-10.65L446.66-10.65Q446.66-12.1 446.96-13.75L446.96-13.75Q447.71-18 450.01-21.2 452.31-24.4 455.68-26.13 459.06-27.85 463.01-27.85L463.01-27.85ZM469.31-15.45Q469.46-16.45 469.46-17.3L469.46-17.3Q469.46-20.5 467.43-22.25 465.41-24 462.16-24L462.16-24Q458.66-24 455.81-21.73 452.96-19.45 451.96-15.45L451.96-15.45 469.31-15.45ZM485.75-22.2Q487.4-24.9 489.9-26.4 492.4-27.9 495.6-27.9L495.6-27.9 494.75-23.2 493.55-23.2Q490-23.2 487.63-21.3 485.25-19.4 484.45-14.9L484.45-14.9 481.8 0 477.25 0 482.1-27.4 486.65-27.4 485.75-22.2Z" opacity="1" transform="matrix(1,0,0,1,0,0)" fill="#306f89" class="wordmark-text-0" data-fill-palette-color="primary" id="text-0"></path></svg></g></svg></g></svg></g></svg></g><g><svg viewBox="0 0 54.717960641376315 56.99944450692829" height="56.99944450692829" width="54.717960641376315"><g><svg xmlns="http://www.w3.org/2000/svg" xmlns:xlink="http://www.w3.org/1999/xlink" version="1.1" x="0" y="0" viewBox="3.533 1.448 93.008 96.88600000000001" enable-background="new 0 0 100 100" xml:space="preserve" height="56.99944450692829" width="54.717960641376315" class="icon-icon-0" data-fill-palette-color="accent" id="icon-0"><path fill-rule="evenodd" clip-rule="evenodd" d="M34.457 44.069C40.243 49.866 48.655 51.308 55.537 48.412L57.154 49.507 60.195 49.087 57.371 52.812 60.848 56.295 67.284 55.857 66.049 60.748 69.038 63.846 74.321 63.613 73.344 67.696 77.134 71.496 81.253 69.741 83.464 71.512 82.385 73.955 82.644 74.143 95.556 74.91 96.541 70.239 65.053 38.241C68.031 31.365 66.568 23.586 60.785 17.794 53.273 10.27 41.286 10.078 34.031 17.322 26.735 24.603 26.948 36.549 34.457 44.069M37.786 29.181C35.389 26.788 35.365 23.011 37.68 20.702 40.011 18.382 43.78 18.413 46.168 20.811 48.565 23.214 48.63 27.017 46.308 29.342 43.99 31.656 40.173 31.588 37.786 29.181" fill="#306f89" data-fill-palette-color="accent"></path><g fill="#306f89" data-fill-palette-color="accent"><path d="M31.167 47.354C26.675 42.86 24.146 36.938 24.044 30.685 24.01 28.698 24.309 26.773 24.752 24.899 20.797 29.705 19.261 36.399 21.348 42.932 23.827 50.732 30.652 55.869 38.094 56.45L39.022 58.158 41.918 59.18 37.709 61.204 39.198 65.885 45.119 68.445 41.783 72.231 43.023 76.347 47.823 78.562 45.078 81.744 46.712 86.86 51.186 87.188 52.337 89.778 50.256 91.448 50.396 91.728 61.52 98.334 64.541 94.64 51.973 54.208A23 23 0 0 1 48.295 54.511C41.857 54.511 35.772 51.967 31.167 47.354" fill="#306f89" data-fill-palette-color="accent"></path></g><g fill="#306f89" data-fill-palette-color="accent"><path d="M23.907 1.448C12.672 1.448 3.533 10.587 3.533 21.822 3.533 30.54 9.107 37.837 16.823 40.728 16.742 40.094 16.658 39.466 16.6 38.808 16.538 38.07 16.546 37.365 16.548 36.659 11.044 33.935 7.202 28.367 7.202 21.823 7.202 12.612 14.696 5.118 23.907 5.118S40.612 12.611 40.612 21.823C40.612 22.933 40.472 24.003 40.254 25.051 40.395 25.767 40.82 26.473 41.951 26.691 42.973 26.888 43.56 26.296 43.902 25.622 44.141 24.392 44.281 23.125 44.281 21.823 44.281 10.587 35.143 1.448 23.907 1.448" fill="#306f89" data-fill-palette-color="accent"></path></g></svg></g></svg></g></svg></g><defs></defs></svg><rect width="395.52" height="49.01230291889352" fill="none" stroke="none" visibility="hidden"></rect></g></svg></g></svg>